<mxfile host="Electron" modified="2024-01-11T01:32:53.694Z" agent="Mozilla/5.0 (Macintosh; Intel Mac OS X 10_15_7) AppleWebKit/537.36 (KHTML, like Gecko) draw.io/22.1.11 Chrome/114.0.5735.289 Electron/25.9.8 Safari/537.36" etag="kJw0rXz08o9ONDhtjoG4" version="22.1.11" type="device">
  <diagram name="第 1 页" id="Nx4X9cOqqDXcBY0uLnVW">
    <mxGraphModel dx="954" dy="617" grid="0" gridSize="10" guides="1" tooltips="1" connect="1" arrows="1" fold="1" page="1" pageScale="1" pageWidth="1169" pageHeight="1654" math="0" shadow="0">
      <root>
        <mxCell id="0" />
        <mxCell id="1" parent="0" />
        <mxCell id="5V23Ficq-c6yQ36fk3nQ-1" value="&lt;font style=&quot;font-size: 18px;&quot; face=&quot;Times New Roman&quot;&gt;&lt;b&gt;A&lt;/b&gt;&lt;/font&gt;" style="whiteSpace=wrap;html=1;aspect=fixed;fillColor=#FFB703;" vertex="1" parent="1">
          <mxGeometry x="228" y="219" width="38" height="38" as="geometry" />
        </mxCell>
        <mxCell id="5V23Ficq-c6yQ36fk3nQ-2" value="" style="whiteSpace=wrap;html=1;aspect=fixed;fillColor=#FFB703;" vertex="1" parent="1">
          <mxGeometry x="266" y="219" width="38" height="38" as="geometry" />
        </mxCell>
        <mxCell id="5V23Ficq-c6yQ36fk3nQ-3" value="" style="whiteSpace=wrap;html=1;aspect=fixed;fillColor=#FFB703;" vertex="1" parent="1">
          <mxGeometry x="304" y="219" width="38" height="38" as="geometry" />
        </mxCell>
        <mxCell id="5V23Ficq-c6yQ36fk3nQ-4" value="" style="whiteSpace=wrap;html=1;aspect=fixed;fillColor=#FFB703;" vertex="1" parent="1">
          <mxGeometry x="342" y="219" width="38" height="38" as="geometry" />
        </mxCell>
        <mxCell id="5V23Ficq-c6yQ36fk3nQ-5" value="" style="whiteSpace=wrap;html=1;aspect=fixed;fillColor=#90C9E6;" vertex="1" parent="1">
          <mxGeometry x="228" y="271" width="38" height="38" as="geometry" />
        </mxCell>
        <mxCell id="5V23Ficq-c6yQ36fk3nQ-6" value="" style="whiteSpace=wrap;html=1;aspect=fixed;fillColor=#90C9E6;" vertex="1" parent="1">
          <mxGeometry x="266" y="271" width="38" height="38" as="geometry" />
        </mxCell>
        <mxCell id="5V23Ficq-c6yQ36fk3nQ-7" value="" style="whiteSpace=wrap;html=1;aspect=fixed;fillColor=#90C9E6;" vertex="1" parent="1">
          <mxGeometry x="304" y="271" width="38" height="38" as="geometry" />
        </mxCell>
        <mxCell id="5V23Ficq-c6yQ36fk3nQ-8" value="" style="whiteSpace=wrap;html=1;aspect=fixed;fillColor=#90C9E6;" vertex="1" parent="1">
          <mxGeometry x="342" y="271" width="38" height="38" as="geometry" />
        </mxCell>
        <mxCell id="5V23Ficq-c6yQ36fk3nQ-9" value="" style="whiteSpace=wrap;html=1;aspect=fixed;fillColor=#FB8402;" vertex="1" parent="1">
          <mxGeometry x="228" y="321" width="38" height="38" as="geometry" />
        </mxCell>
        <mxCell id="5V23Ficq-c6yQ36fk3nQ-10" value="" style="whiteSpace=wrap;html=1;aspect=fixed;fillColor=#FB8402;" vertex="1" parent="1">
          <mxGeometry x="266" y="321" width="38" height="38" as="geometry" />
        </mxCell>
        <mxCell id="5V23Ficq-c6yQ36fk3nQ-11" value="" style="whiteSpace=wrap;html=1;aspect=fixed;fillColor=#FB8402;" vertex="1" parent="1">
          <mxGeometry x="304" y="321" width="38" height="38" as="geometry" />
        </mxCell>
        <mxCell id="5V23Ficq-c6yQ36fk3nQ-12" value="" style="whiteSpace=wrap;html=1;aspect=fixed;fillColor=#FB8402;" vertex="1" parent="1">
          <mxGeometry x="342" y="321" width="38" height="38" as="geometry" />
        </mxCell>
        <mxCell id="5V23Ficq-c6yQ36fk3nQ-13" value="" style="whiteSpace=wrap;html=1;aspect=fixed;fillColor=#219EBC;" vertex="1" parent="1">
          <mxGeometry x="228" y="371" width="38" height="38" as="geometry" />
        </mxCell>
        <mxCell id="5V23Ficq-c6yQ36fk3nQ-14" value="" style="whiteSpace=wrap;html=1;aspect=fixed;fillColor=#219EBC;" vertex="1" parent="1">
          <mxGeometry x="266" y="371" width="38" height="38" as="geometry" />
        </mxCell>
        <mxCell id="5V23Ficq-c6yQ36fk3nQ-15" value="" style="whiteSpace=wrap;html=1;aspect=fixed;fillColor=#219EBC;" vertex="1" parent="1">
          <mxGeometry x="304" y="371" width="38" height="38" as="geometry" />
        </mxCell>
        <mxCell id="5V23Ficq-c6yQ36fk3nQ-16" value="" style="whiteSpace=wrap;html=1;aspect=fixed;fillColor=#219EBC;" vertex="1" parent="1">
          <mxGeometry x="342" y="371" width="38" height="38" as="geometry" />
        </mxCell>
        <mxCell id="5V23Ficq-c6yQ36fk3nQ-17" value="&lt;font color=&quot;#ffb703&quot; style=&quot;font-size: 18px;&quot; face=&quot;Times New Roman&quot;&gt;&lt;b&gt;P0&lt;/b&gt;&lt;/font&gt;" style="text;html=1;strokeColor=none;fillColor=none;align=center;verticalAlign=middle;whiteSpace=wrap;rounded=0;" vertex="1" parent="1">
          <mxGeometry x="159" y="223" width="60" height="30" as="geometry" />
        </mxCell>
        <mxCell id="5V23Ficq-c6yQ36fk3nQ-18" value="&lt;font color=&quot;#90c9e6&quot; style=&quot;font-size: 18px;&quot; face=&quot;Times New Roman&quot;&gt;&lt;b&gt;P1&lt;/b&gt;&lt;/font&gt;" style="text;html=1;strokeColor=none;fillColor=none;align=center;verticalAlign=middle;whiteSpace=wrap;rounded=0;" vertex="1" parent="1">
          <mxGeometry x="159" y="275" width="60" height="30" as="geometry" />
        </mxCell>
        <mxCell id="5V23Ficq-c6yQ36fk3nQ-19" value="&lt;font color=&quot;#fb8402&quot; style=&quot;font-size: 18px;&quot; face=&quot;Times New Roman&quot;&gt;&lt;b&gt;P2&lt;/b&gt;&lt;/font&gt;" style="text;html=1;strokeColor=none;fillColor=none;align=center;verticalAlign=middle;whiteSpace=wrap;rounded=0;" vertex="1" parent="1">
          <mxGeometry x="159" y="325" width="60" height="30" as="geometry" />
        </mxCell>
        <mxCell id="5V23Ficq-c6yQ36fk3nQ-20" value="&lt;font color=&quot;#219ebc&quot; style=&quot;font-size: 18px;&quot; face=&quot;Times New Roman&quot;&gt;&lt;b&gt;P3&lt;/b&gt;&lt;/font&gt;" style="text;html=1;strokeColor=none;fillColor=none;align=center;verticalAlign=middle;whiteSpace=wrap;rounded=0;" vertex="1" parent="1">
          <mxGeometry x="159" y="375" width="60" height="30" as="geometry" />
        </mxCell>
        <mxCell id="5V23Ficq-c6yQ36fk3nQ-21" value="" style="html=1;shadow=0;dashed=0;align=center;verticalAlign=middle;shape=mxgraph.arrows2.arrow;dy=0.6;dx=40;notch=15;fillColor=#023047;" vertex="1" parent="1">
          <mxGeometry x="433" y="284" width="160" height="62" as="geometry" />
        </mxCell>
        <mxCell id="5V23Ficq-c6yQ36fk3nQ-22" value="&lt;font style=&quot;font-size: 20px;&quot;&gt;&lt;b style=&quot;&quot;&gt;&lt;i style=&quot;&quot;&gt;Broadcast&lt;/i&gt;&lt;/b&gt;&lt;/font&gt;" style="text;html=1;strokeColor=none;fillColor=none;align=center;verticalAlign=middle;whiteSpace=wrap;rounded=0;" vertex="1" parent="1">
          <mxGeometry x="436" y="254" width="134" height="30" as="geometry" />
        </mxCell>
        <mxCell id="5V23Ficq-c6yQ36fk3nQ-23" value="&lt;font style=&quot;font-size: 18px;&quot; face=&quot;Times New Roman&quot;&gt;&lt;b&gt;A&lt;/b&gt;&lt;/font&gt;" style="whiteSpace=wrap;html=1;aspect=fixed;fillColor=#FFB703;" vertex="1" parent="1">
          <mxGeometry x="649" y="219" width="38" height="38" as="geometry" />
        </mxCell>
        <mxCell id="5V23Ficq-c6yQ36fk3nQ-24" value="" style="whiteSpace=wrap;html=1;aspect=fixed;fillColor=#FFB703;" vertex="1" parent="1">
          <mxGeometry x="687" y="219" width="38" height="38" as="geometry" />
        </mxCell>
        <mxCell id="5V23Ficq-c6yQ36fk3nQ-25" value="" style="whiteSpace=wrap;html=1;aspect=fixed;fillColor=#FFB703;" vertex="1" parent="1">
          <mxGeometry x="725" y="219" width="38" height="38" as="geometry" />
        </mxCell>
        <mxCell id="5V23Ficq-c6yQ36fk3nQ-26" value="" style="whiteSpace=wrap;html=1;aspect=fixed;fillColor=#FFB703;" vertex="1" parent="1">
          <mxGeometry x="763" y="219" width="38" height="38" as="geometry" />
        </mxCell>
        <mxCell id="5V23Ficq-c6yQ36fk3nQ-27" value="&lt;b style=&quot;border-color: var(--border-color); font-family: &amp;quot;Times New Roman&amp;quot;; font-size: 18px;&quot;&gt;A&lt;/b&gt;" style="whiteSpace=wrap;html=1;aspect=fixed;fillColor=#90C9E6;" vertex="1" parent="1">
          <mxGeometry x="649" y="271" width="38" height="38" as="geometry" />
        </mxCell>
        <mxCell id="5V23Ficq-c6yQ36fk3nQ-28" value="" style="whiteSpace=wrap;html=1;aspect=fixed;fillColor=#90C9E6;" vertex="1" parent="1">
          <mxGeometry x="687" y="271" width="38" height="38" as="geometry" />
        </mxCell>
        <mxCell id="5V23Ficq-c6yQ36fk3nQ-29" value="" style="whiteSpace=wrap;html=1;aspect=fixed;fillColor=#90C9E6;" vertex="1" parent="1">
          <mxGeometry x="725" y="271" width="38" height="38" as="geometry" />
        </mxCell>
        <mxCell id="5V23Ficq-c6yQ36fk3nQ-30" value="" style="whiteSpace=wrap;html=1;aspect=fixed;fillColor=#90C9E6;" vertex="1" parent="1">
          <mxGeometry x="763" y="271" width="38" height="38" as="geometry" />
        </mxCell>
        <mxCell id="5V23Ficq-c6yQ36fk3nQ-31" value="&lt;b style=&quot;border-color: var(--border-color); font-family: &amp;quot;Times New Roman&amp;quot;; font-size: 18px;&quot;&gt;A&lt;/b&gt;" style="whiteSpace=wrap;html=1;aspect=fixed;fillColor=#FB8402;" vertex="1" parent="1">
          <mxGeometry x="649" y="321" width="38" height="38" as="geometry" />
        </mxCell>
        <mxCell id="5V23Ficq-c6yQ36fk3nQ-32" value="" style="whiteSpace=wrap;html=1;aspect=fixed;fillColor=#FB8402;" vertex="1" parent="1">
          <mxGeometry x="687" y="321" width="38" height="38" as="geometry" />
        </mxCell>
        <mxCell id="5V23Ficq-c6yQ36fk3nQ-33" value="" style="whiteSpace=wrap;html=1;aspect=fixed;fillColor=#FB8402;" vertex="1" parent="1">
          <mxGeometry x="725" y="321" width="38" height="38" as="geometry" />
        </mxCell>
        <mxCell id="5V23Ficq-c6yQ36fk3nQ-34" value="" style="whiteSpace=wrap;html=1;aspect=fixed;fillColor=#FB8402;" vertex="1" parent="1">
          <mxGeometry x="763" y="321" width="38" height="38" as="geometry" />
        </mxCell>
        <mxCell id="5V23Ficq-c6yQ36fk3nQ-35" value="&lt;b style=&quot;border-color: var(--border-color); font-family: &amp;quot;Times New Roman&amp;quot;; font-size: 18px;&quot;&gt;A&lt;/b&gt;" style="whiteSpace=wrap;html=1;aspect=fixed;fillColor=#219EBC;" vertex="1" parent="1">
          <mxGeometry x="649" y="371" width="38" height="38" as="geometry" />
        </mxCell>
        <mxCell id="5V23Ficq-c6yQ36fk3nQ-36" value="" style="whiteSpace=wrap;html=1;aspect=fixed;fillColor=#219EBC;" vertex="1" parent="1">
          <mxGeometry x="687" y="371" width="38" height="38" as="geometry" />
        </mxCell>
        <mxCell id="5V23Ficq-c6yQ36fk3nQ-37" value="" style="whiteSpace=wrap;html=1;aspect=fixed;fillColor=#219EBC;" vertex="1" parent="1">
          <mxGeometry x="725" y="371" width="38" height="38" as="geometry" />
        </mxCell>
        <mxCell id="5V23Ficq-c6yQ36fk3nQ-38" value="" style="whiteSpace=wrap;html=1;aspect=fixed;fillColor=#219EBC;" vertex="1" parent="1">
          <mxGeometry x="763" y="371" width="38" height="38" as="geometry" />
        </mxCell>
      </root>
    </mxGraphModel>
  </diagram>
</mxfile>
